<html>
<head>
<meta charset="UTF-8">
<meta name="viewport" content="width=device-width, initial-scale=1.0"/>

<style>
.comment
{
    padding-left: 20px;
    margin-top: 4px;
    margin-right: 4px;
    margin-bottom: 4px;
    border: 2px #000 solid;
}
.submission
{
    border: 4px #00f solid;
    padding-left: 20px;
}
.hidden
{
    display: none;
}
</style>
</head>
<body><div class="submission" id="t3_6m6ped">
    <p class="userinfo">
        <a href="https://www.reddit.com/u/frabagoo">frabagoo</a>
        <span class="score"> | 23 points</span>
        <span class="timestamp"> | Jul 09 2017 10:01:05</span>
    </p>
    <strong>[TV] Jordan.Klepper.Solves.Guns.2017.720p.WEB.x264-TBS.mkv [870MB]</strong>
    <p><h1>Jordan.Klepper.Solves.Guns.2017.720p.WEB.x264-TBS</h1>
<h5>Link:</h5>
<blockquote>
<p>aHR0cDovL2xpbmtzLnNuYWhwLml0LzE4MFBld1Bldw==<br>
Decode link <a href="https://www.base64decode.org">here</a></p>
</blockquote>
<p><em>The password is the name of this subreddit</em></p>
<h5>Key:</h5>
<blockquote>
<p>IUt2c3Z3aGEzMTItNkJza1o1SGtfRVozMzBfNXEzOEdVeGVTT3FZeUNmMTA=<br>
Decode link <a href="https://www.base64decode.org">here</a></p>
</blockquote>
<hr>
<pre><code>MediaInfo:

Video  
ID                                       : 1  
Format                                   : AVC  
Format/Info                              : Advanced Video Codec  
Format profile                           : High@L4  
Format settings, CABAC                   : Yes  
Format settings, ReFrames                : 4 frames  
Codec ID                                 : V_MPEG4/ISO/AVC  
Duration                                 : 50mn 55s  
Bit rate                                 : 2 258 Kbps  
Width                                    : 1 280 pixels  
Height                                   : 720 pixels  
Display aspect ratio                     : 16:9  
Frame rate mode                          : Constant  
Frame rate                               : 23.976 (23976/1000) fps  
Original frame rate                      : 23.976 (24000/1001) fps  
Color space                              : YUV  
Chroma subsampling                       : 4:2:0  
Bit depth                                : 8 bits  
Scan type                                : Progressive  
Bits/(Pixel*Frame)                       : 0.102  
Stream size                              : 823 MiB (95%)  
Writing library                          : x264 core 138  
Encoding settings                        : cabac=1 / ref=4 / deblock=1:0:0 / analyse=0x3:0x113 / me=umh / subme=10 / psy=1 / psy_rd=1.00:0.15 / mixed_ref=1 / me_range=16 / chroma_me=1 / trellis=2 / 8x8dct=1 / cqm=0 / deadzone=21,11 / fast_pskip=1 / chroma_qp_offset=-3 / threads=32 / lookahead_threads=2 / sliced_threads=0 / nr=0 / decimate=0 / interlaced=0 / bluray_compat=0 / constrained_intra=0 / bframes=3 / b_pyramid=0 / b_adapt=2 / b_bias=0 / direct=3 / weightb=1 / open_gop=0 / weightp=2 / keyint=48 / keyint_min=23 / scenecut=0 / intra_refresh=0 / rc_lookahead=48 / rc=crf / mbtree=1 / crf=19.0 / qcomp=0.60 / qpmin=10 / qpmax=51 / qpstep=4 / vbv_maxrate=3000 / vbv_bufsize=6000 / crf_max=0.0 / nal_hrd=none / filler=0 / ip_ratio=1.40 / aq=1:0.80  
Default                                  : Yes  
Forced                                   : No

Audio  
ID                                       : 2  
Format                                   : AAC  
Format/Info                              : Advanced Audio Codec  
Format profile                           : LC  
Codec ID                                 : A_AAC  
Duration                                 : 50mn 55s  
Bit rate                                 : 128 Kbps  
Channel(s)                               : 2 channels  
Channel positions                        : Front: L R  
Sampling rate                            : 48.0 KHz  
Frame rate                               : 46.875 fps (1024 spf)  
Compression mode                         : Lossy  
Delay relative to video                  : -41ms  
Stream size                              : 46.6 MiB (5%)  
Default                                  : Yes  
Forced                                   : No
</code></pre></p>
    <p class="toolbar">
        <a href="https://www.reddit.com/r/megalinks/comments/6m6ped">permalink</a>
    </p>
</div>

</body>

<script>
function toggle_collapse(comment_div)
{
    var button = comment_div.getElementsByClassName("toggle_hide_button")[0];
    var collapsible = comment_div.getElementsByClassName("collapsible")[0];
    if (collapsible.classList.contains("hidden"))
    {
        collapsible.classList.remove("hidden");
        button.innerText = "[-]";
    }
    else
    {
        collapsible.classList.add("hidden");
        button.innerText = "[+]";
    }
}
</script>
</html>
